PathFileType	4	(X/Y/Z)	./resultDataOpenSim/trcMotMarkerGrf/sub10/qtm-15-02.trc
DataRate	CameraRate	NumFrames	NumMarkers	Units	OrigDataRate	OrigDataStartFrame	OrigNumFrames
250.000000	250.000000	14	24	m	250.000000	176	469
Frame#	Time	L.Toe.Tip			R.Toe.Tip			L.Ankle.Lat			R.Ankle.Lat			L.Ankle.Med			R.Ankle.Med			L.Heel			R.Heel			L.Knee.Lat			R.Knee.Lat			L.Knee.Med			R.Knee.Med			L.Thigh.Upper			R.Thigh.Upper			L.ASIS			R.ASIS			V.Sacral			L.Acromium			R.Acromium			C7			L.Elbow			R.Elbow			L.Wrist.Lat			R.Wrist.Lat
		X1	Y1	Z1	X2	Y2	Z2	X3	Y3	Z3	X4	Y4	Z4	X5	Y5	Z5	X6	Y6	Z6	X7	Y7	Z7	X8	Y8	Z8	X9	Y9	Z9	X10	Y10	Z10	X11	Y11	Z11	X12	Y12	Z12	X13	Y13	Z13	X14	Y14	Z14	X15	Y15	Z15	X16	Y16	Z16	X17	Y17	Z17	X18	Y18	Z18	X19	Y19	Z19	X20	Y20	Z20	X21	Y21	Z21	X22	Y22	Z22	X23	Y23	Z23	X24	Y24	Z24

176	0.7	-0.012144711	-0.058843217	-0.067745168	-0.55766023	0.13471165	0.11783986	-0.14304009	-0.031107636	-0.11362972	-0.57277066	0.27942841	0.10291859	-0.14915483	-0.0092077119	-0.030273597	-0.53211085	0.23887075	0.03420325	-0.21300287	-0.06078637	-0.081720361	-0.60310207	0.29986982	0.039022471	-0.078349623	0.34961293	-0.1400393	-0.22360488	0.36941792	0.16962213	-0.092187313	0.33495375	-0.018185232	-0.16252281	0.33581407	0.049880058	-0.1249611	0.73235415	-0.20997937	-0.23353173	0.76837574	0.16118734	-0.094872838	0.83547731	-0.12240468	-0.1476717	0.85828478	0.09293908	-0.3143211	0.87385661	-0.063271452	-0.17031802	1.3112178	-0.20501419	-0.23475099	1.3332906	0.105548	-0.27673166	1.3379527	-0.068844087	-0.3324307	1.0267485	-0.27914499	-0.29804242	1.0222046	0.28473737	-0.31401428	0.79780762	-0.36142355	-0.046189816	0.98544995	0.30979532
177	0.704	-0.012004052	-0.058907883	-0.067975136	-0.53915434	0.14123334	0.12145777	-0.14240803	-0.030889104	-0.11426211	-0.55454973	0.28527135	0.10465774	-0.14852541	-0.0083806118	-0.030971829	-0.51502458	0.24372448	0.035599498	-0.21274181	-0.060070889	-0.082146632	-0.5859502	0.30492087	0.040605296	-0.070592675	0.35005238	-0.13978233	-0.20402938	0.36923722	0.16990536	-0.084996725	0.33604221	-0.018294219	-0.1454562	0.33738914	0.049554706	-0.12289441	0.73167147	-0.21086653	-0.22616587	0.76554943	0.16104209	-0.090109791	0.83343046	-0.12367581	-0.14294892	0.8563671	0.092390542	-0.31123784	0.87205347	-0.063377114	-0.16147	1.3102388	-0.20487591	-0.22538985	1.3327994	0.10559826	-0.26710858	1.3388494	-0.06888738	-0.32199053	1.0239119	-0.28123397	-0.2927048	1.0219346	0.28398329	-0.29722211	0.79639757	-0.36627677	-0.041989545	0.98600113	0.31446948
178	0.708	-0.011854522	-0.058981353	-0.068205717	-0.5202022	0.14722556	0.124635	-0.14173175	-0.03062661	-0.11489596	-0.53639815	0.29058623	0.10637531	-0.14785148	-0.0075919694	-0.031691244	-0.49764168	0.24844107	0.03713604	-0.21251781	-0.059278715	-0.082655876	-0.56856363	0.3096374	0.042424376	-0.0632569	0.35018843	-0.13958148	-0.18434945	0.369944	0.17051382	-0.07796656	0.33668579	-0.018756649	-0.12828614	0.33933008	0.049152328	-0.12067916	0.73087353	-0.21201819	-0.21912359	0.76287912	0.16090109	-0.085388794	0.83170588	-0.12521765	-0.13844307	0.8544921	0.092114814	-0.30794724	0.87005768	-0.063485073	-0.15257248	1.3093315	-0.20459247	-0.21596641	1.332297	0.10561216	-0.2574507	1.3397949	-0.068829473	-0.31148819	1.0213352	-0.28344989	-0.28750354	1.0218673	0.2831218	-0.2797696	0.79545259	-0.371233	-0.037932229	0.98683339	0.31938272
179	0.712	-0.011702679	-0.05904285	-0.068408674	-0.50085307	0.15269179	0.1274471	-0.14098518	-0.030320722	-0.11541893	-0.51820838	0.29540979	0.10813809	-0.14719352	-0.0068970434	-0.032318988	-0.47996971	0.25297941	0.03882155	-0.2122926	-0.05841637	-0.083361107	-0.55108058	0.31398621	0.044437144	-0.056525087	0.34997036	-0.13948254	-0.16513519	0.3715392	0.17104709	-0.070991514	0.33690962	-0.019364573	-0.11100966	0.34163984	0.048709615	-0.11835114	0.72996245	-0.21308061	-0.21233308	0.76044619	0.16082728	-0.080760191	0.8303099	-0.12707152	-0.1340963	0.8526332	0.092096419	-0.30398283	0.86763626	-0.063465277	-0.14363487	1.3084861	-0.20416839	-0.20659282	1.3317466	0.10555333	-0.24786514	1.340569	-0.068833566	-0.30091292	1.0189872	-0.28596554	-0.28232143	1.0219203	0.28209519	-0.26173068	0.79496107	-0.37630342	-0.034059487	0.98792393	0.3245332
180	0.716	-0.011571565	-0.05907975	-0.068575935	-0.48104135	0.15768492	0.12998376	-0.14021249	-0.029977969	-0.1157718	-0.49983951	0.29978391	0.11002475	-0.14658549	-0.006303935	-0.032791376	-0.46201157	0.25729093	0.040639657	-0.21211269	-0.057570494	-0.084116083	-0.53356193	0.31793174	0.046601098	-0.050515115	0.34940411	-0.13950502	-0.14704012	0.37394117	0.17112337	-0.064188765	0.33669298	-0.020028106	-0.09372358	0.34431549	0.048201424	-0.11608632	0.72899489	-0.21416221	-0.20570065	0.75835126	0.16084077	-0.076290986	0.82927852	-0.12920804	-0.12985503	0.85078015	0.092294846	-0.29930946	0.86477705	-0.063132503	-0.13467016	1.3076865	-0.20362453	-0.19734643	1.331144	0.1053961	-0.23844385	1.341071	-0.068873479	-0.29026009	1.0168401	-0.2887469	-0.27719411	1.0220733	0.28107555	-0.2431943	0.79491674	-0.38147653	-0.03038073	0.98924529	0.32992051
181	0.72	-0.011476125	-0.059096728	-0.068707008	-0.46070854	0.16224741	0.13232558	-0.13951064	-0.029616585	-0.11597465	-0.4812186	0.30373041	0.1120769	-0.14600881	-0.0057847127	-0.033088842	-0.44379793	0.26132712	0.04246515	-0.21202654	-0.056833509	-0.084644849	-0.515981	0.32144658	0.048877024	-0.045274464	0.34855423	-0.13961742	-0.12998936	0.37701948	0.17078425	-0.05782084	0.3360297	-0.020730736	-0.0764882	0.34735875	0.047562012	-0.11386587	0.72805259	-0.21547225	-0.19923638	0.75665178	0.160897	-0.072034743	0.8286588	-0.13151947	-0.12566701	0.84893952	0.092670676	-0.29443446	0.86182586	-0.062437358	-0.12564855	1.306905	-0.202973	-0.18824819	1.3304987	0.10514113	-0.22930792	1.3413008	-0.068808782	-0.27952887	1.0148935	-0.29174424	-0.27218544	1.0223362	0.28024203	-0.22422813	0.79532363	-0.38671443	-0.026843918	0.99078361	0.3355482
182	0.724	-0.011414411	-0.059105631	-0.068798956	-0.43996934	0.16635403	0.13449642	-0.13896963	-0.029272843	-0.1160852	-0.46239091	0.30723384	0.11426286	-0.14538995	-0.0053131022	-0.033197743	-0.42537835	0.26505347	0.0441166	-0.21201771	-0.056225262	-0.084824242	-0.49829321	0.3245195	0.051249428	-0.040781029	0.34751065	-0.13976342	-0.11329445	0.38061961	0.17036054	-0.052047924	0.33502212	-0.02138736	-0.059195421	0.35081356	0.046768586	-0.1116091	0.72718121	-0.21693661	-0.19308881	0.75531973	0.16089045	-0.068001731	0.82847558	-0.13386607	-0.12148487	0.84713304	0.093203448	-0.29002465	0.8592606	-0.061558554	-0.11653045	1.3061169	-0.20221924	-0.17927836	1.329829	0.10481278	-0.22050902	1.3413067	-0.068581717	-0.26872071	1.0131798	-0.29496548	-0.26727519	1.022724	0.27964037	-0.20488856	0.79619273	-0.39195639	-0.023381272	0.9925381	0.34141877
183	0.728	-0.011372717	-0.05911124	-0.068845853	-0.41905143	0.16994598	0.13647396	-0.13861919	-0.028983467	-0.1161364	-0.44350732	0.31024425	0.11647999	-0.14465646	-0.0048902148	-0.03310176	-0.40678746	0.26845307	0.045590465	-0.21200752	-0.055689797	-0.084738312	-0.48048154	0.3271243	0.053715466	-0.036985955	0.3463587	-0.13990626	-0.096368372	0.38462601	0.17011363	-0.046940829	0.33384515	-0.021871325	-0.041748949	0.35472143	0.04583409	-0.10929039	0.72638733	-0.21836076	-0.18748172	0.75425969	0.16070488	-0.064159256	0.82870371	-0.13613576	-0.1172805	0.84539206	0.093890628	-0.28640241	0.85731345	-0.060705351	-0.10732547	1.3053084	-0.20138234	-0.17041337	1.3291614	0.10444295	-0.2119859	1.3411445	-0.068214989	-0.25782556	1.0117499	-0.29839174	-0.26239227	1.0232321	0.27923092	-0.18524205	0.79752925	-0.39713819	-0.019982992	0.99451558	0.347538
184	0.732	-0.011334529	-0.05910817	-0.068847528	-0.39810458	0.17299981	0.13825605	-0.13843707	-0.028776074	-0.11613681	-0.42474601	0.31270016	0.11860768	-0.14385516	-0.0045561684	-0.032825107	-0.38805043	0.27150076	0.047109458	-0.21191859	-0.055167503	-0.084545134	-0.46256919	0.32921041	0.056240608	-0.033855196	0.34517175	-0.14005156	-0.079023941	0.38898502	0.17010602	-0.042595486	0.33263798	-0.022111529	-0.024222233	0.35907654	0.044776382	-0.10690949	0.72566301	-0.21962826	-0.18257819	0.75335158	0.16028378	-0.060469281	0.82926271	-0.13826904	-0.11304952	0.84374742	0.094734582	-0.28340676	0.85586113	-0.059874473	-0.098082025	1.3044721	-0.20049233	-0.16164883	1.32852	0.10405735	-0.20365024	1.3408519	-0.067732968	-0.24681518	1.0106368	-0.30194804	-0.25747476	1.0238241	0.27897438	-0.16536487	0.79932667	-0.40220647	-0.016687128	0.99673398	0.35391564
185	0.736	-0.01129295	-0.059089557	-0.068820173	-0.37710403	0.1755583	0.13990999	-0.13837799	-0.028669138	-0.11609168	-0.40621956	0.31455348	0.12056301	-0.14316827	-0.0043697329	-0.032465119	-0.36920548	0.27413748	0.048847326	-0.21176411	-0.054693427	-0.084336004	-0.4446154	0.33073512	0.058741781	-0.031334915	0.34400444	-0.1402378	-0.061335147	0.39367796	0.17027622	-0.039051508	0.33147342	-0.022125971	-0.0067946737	0.3638429	0.043664297	-0.10446544	0.72500077	-0.22071515	-0.17836973	0.75247507	0.15966286	-0.056896825	0.83004271	-0.14024857	-0.10879931	0.84221922	0.095734309	-0.28064455	0.85466996	-0.058886827	-0.088834707	1.3035983	-0.19956922	-0.15300987	1.3279105	0.10367899	-0.19545289	1.3404413	-0.067194908	-0.23566252	1.0098169	-0.30557901	-0.25249174	1.0244852	0.27886988	-0.14532432	0.80157089	-0.40712145	-0.013511637	0.99922222	0.36054922
186	0.74	-0.01126049	-0.059058117	-0.068788333	-0.35590022	0.17772261	0.14156184	-0.138388	-0.028668993	-0.11600013	-0.38788359	0.3158124	0.12234758	-0.14277104	-0.00436423	-0.03214754	-0.35029298	0.27629819	0.050731699	-0.21165335	-0.054410783	-0.084101874	-0.42667313	0.33168205	0.061139366	-0.02931794	0.34288257	-0.14049775	-0.043450216	0.39869407	0.1705299	-0.036171107	0.33038564	-0.021994223	0.010307414	0.36897696	0.042664889	-0.10195045	0.72439711	-0.22163982	-0.17467706	0.75152501	0.15893088	-0.053370023	0.83094304	-0.14207099	-0.10453851	0.84081425	0.096885871	-0.27771591	0.85365625	-0.057698081	-0.079593146	1.3026731	-0.19861741	-0.14455097	1.327318	0.10333907	-0.18739223	1.3399192	-0.06672176	-0.22435611	1.009205	-0.30929781	-0.24743418	1.0252577	0.27892241	-0.12516425	0.80424346	-0.41185785	-0.01043776	1.0019988	0.36740816
187	0.744	-0.011263276	-0.059027216	-0.068765021	-0.33436479	0.17959445	0.14333053	-0.13843129	-0.028775019	-0.11586245	-0.36955307	0.31656032	0.12404852	-0.14270626	-0.004531018	-0.031939656	-0.33133999	0.27795934	0.052572183	-0.21168741	-0.054451381	-0.083807891	-0.40874416	0.33204712	0.063418698	-0.027704921	0.34180845	-0.14081524	-0.025501115	0.40401893	0.17078184	-0.033764442	0.32936295	-0.021804251	0.026851618	0.37443465	0.04192929	-0.099352295	0.7238511	-0.22242575	-0.17124282	0.75043868	0.15815348	-0.049780056	0.83189445	-0.14372726	-0.10027143	0.8395358	0.098173638	-0.27417099	0.85287058	-0.056572604	-0.070374394	1.3016896	-0.19763946	-0.13630738	1.3267282	0.1030677	-0.17950032	1.3393175	-0.066427309	-0.21288988	1.0086889	-0.3131416	-0.24229499	1.0261742	0.27908985	-0.10491496	0.80732585	-0.41640387	-0.007444838	1.0050545	0.37444004
188	0.748	-0.01132468	-0.059009303	-0.068751552	-0.31249454	0.18120583	0.14526447	-0.13850733	-0.028986528	-0.1156871	-0.35107865	0.31689132	0.1257508	-0.14286989	-0.0048356118	-0.031806495	-0.31236147	0.27913658	0.054264627	-0.21186555	-0.054815179	-0.083469028	-0.39080802	0.3318082	0.065609084	-0.026466711	0.34077654	-0.14111468	-0.0075901718	0.40963315	0.17095992	-0.03178056	0.32835979	-0.021593585	0.042836914	0.38018908	0.041363542	-0.096657526	0.72336251	-0.22308916	-0.1678364	0.74921364	0.15733418	-0.046065447	0.83285475	-0.14521725	-0.095991616	0.83839956	0.099551319	-0.2697658	0.85242196	-0.055670407	-0.061221731	1.3006628	-0.19664872	-0.1282379	1.32615	0.10287115	-0.17180793	1.3386988	-0.066339937	-0.20125319	1.0081715	-0.31711152	-0.23707024	1.0272114	0.27930297	-0.084617321	0.81080341	-0.42075617	-0.004543669	1.00837	0.38159391
189	0.752	-0.011453265	-0.059005213	-0.068747991	-0.29038426	0.18251779	0.1473351	-0.1386357	-0.029300044	-0.11547771	-0.3324606	0.31683741	0.12745495	-0.14309986	-0.0052428482	-0.031658229	-0.29334796	0.2798429	0.055836811	-0.21210534	-0.055387256	-0.083141606	-0.3728741	0.33091956	0.067718103	-0.025591452	0.33978063	-0.14129789	0.01019537	0.41551411	0.17099588	-0.03034236	0.32735766	-0.02133729	0.058665291	0.3862432	0.040619293	-0.093852974	0.72293095	-0.2236401	-0.1643084	0.74788907	0.15644101	-0.042286226	0.83379246	-0.14657603	-0.091679511	0.83744134	0.10093733	-0.2648791	0.85243653	-0.054747183	-0.052188473	1.299631	-0.19566656	-0.12026184	1.3256105	0.10273515	-0.16429528	1.3381194	-0.066398862	-0.18943589	1.0075896	-0.32116424	-0.23178319	1.0283586	0.27954718	-0.064323812	0.81466146	-0.42491678	-0.001785116	1.0119399	0.38883394
